<svg xmlns="http://www.w3.org/2000/svg" width="743" height="552" viewBox="0 0 743 552">
<rect x="0" y="0" width="100%" height="100%" fill="#FFFFFF"/>
<g>
<path d="M 365.92 238.00 C365.87,351.44 365.61,378.84 364.56,380.26 C363.38,381.87 362.91,381.55 359.32,376.76 C351.59,366.44 350.00,364.12 350.00,363.19 C350.00,362.67 349.16,361.63 348.12,360.87 C347.09,360.12 340.84,352.08 334.24,343.00 C327.63,333.92 319.58,323.03 316.36,318.80 C304.52,303.24 283.49,274.73 283.12,273.74 C282.91,273.18 282.13,271.99 281.39,271.11 C280.64,270.22 275.72,263.88 270.46,257.00 C265.19,250.12 260.26,243.74 259.51,242.82 C258.75,241.89 257.37,239.98 256.45,238.56 C254.05,234.91 254.48,234.50 272.35,223.38 C276.67,220.70 284.21,215.92 289.10,212.77 L 298.00 207.04 L 298.00 180.25 C298.00,153.76 297.97,153.43 295.64,149.98 C293.42,146.70 293.11,144.18 294.27,138.57 C294.49,137.52 296.74,135.49 299.27,134.07 C304.04,131.40 326.87,117.42 333.00,113.42 C337.82,110.28 350.20,102.85 357.90,98.49 C362.88,95.68 364.49,95.16 365.14,96.19 C365.61,96.91 365.95,160.73 365.92,238.00 ZM 317.02 164.75 C317.00,179.10 317.19,181.00 318.63,181.00 C321.03,181.00 330.70,175.23 331.41,173.37 C332.33,170.98 332.00,139.00 331.05,139.00 C329.74,139.00 318.69,145.89 317.82,147.25 C317.39,147.94 317.02,155.81 317.02,164.75 ZM 317.46 230.75 C317.72,231.44 318.16,232.00 318.42,232.00 C319.08,232.00 325.85,227.61 329.25,224.98 L 332.00 222.85 L 331.98 207.67 C331.98,199.33 331.54,191.82 331.01,191.00 C330.19,189.71 329.30,189.91 324.78,192.39 C321.87,193.98 319.08,195.65 318.58,196.11 C317.62,196.97 316.61,228.52 317.46,230.75 ZM 342.23 250.81 C342.03,263.94 342.27,269.00 343.10,269.00 C343.72,269.00 346.88,267.39 350.12,265.43 L 356.00 261.86 L 356.00 227.00 L 353.75 227.08 C352.51,227.12 349.48,228.39 347.00,229.89 L 342.50 232.63 ZM 340.57 215.67 C342.84,217.34 342.94,217.33 347.63,215.40 C355.85,212.02 356.00,211.63 356.00,193.88 C356.00,183.38 355.63,177.89 354.89,177.43 C354.27,177.05 351.12,178.01 347.89,179.55 L 342.00 182.37 L 342.00 196.18 C342.00,204.06 341.60,210.00 341.07,210.00 C340.55,210.00 339.82,210.98 339.44,212.17 C338.96,213.69 339.30,214.75 340.57,215.67 ZM 342.00 150.01 C342.00,159.91 342.25,168.00 342.55,168.00 C343.65,168.00 349.58,164.70 352.75,162.33 L 356.00 159.90 L 355.98 144.20 C355.98,135.56 355.59,127.90 355.12,127.17 C354.45,126.11 353.01,126.47 348.14,128.93 L 342.00 132.03 ZM 317.78 266.25 C318.10,277.01 318.60,282.00 319.37,282.00 C319.99,281.99 322.98,280.50 326.00,278.68 L 331.50 275.38 L 331.77 258.67 C332.00,244.95 331.79,241.86 330.63,241.41 C328.46,240.58 319.04,245.76 318.12,248.29 C317.68,249.50 317.53,257.59 317.78,266.25 Z" fill="rgb(27,94,179)"/>
<path d="M 365.92 238.00 C365.95,160.73 365.61,96.91 365.14,96.19 C364.58,95.30 363.29,95.57 359.70,97.50 L 366.17 93.86 L 369.33 95.98 C371.08,97.15 376.10,100.28 380.50,102.95 C384.90,105.61 394.25,111.33 401.28,115.65 C408.30,119.97 420.00,127.10 427.27,131.50 C434.96,136.15 440.63,140.24 440.82,141.26 C441.00,142.23 439.47,145.31 437.42,148.11 L 433.69 153.19 L 433.86 180.34 C433.96,195.28 434.43,207.64 434.93,207.80 C435.42,207.97 440.47,211.07 446.16,214.69 C451.85,218.31 460.33,223.70 465.00,226.68 C469.67,229.66 474.52,232.87 475.78,233.82 L 478.05 235.55 L 468.28 248.59 C462.90,255.76 454.85,266.55 450.39,272.57 C445.94,278.58 434.28,294.30 424.49,307.50 C404.67,334.22 395.96,346.04 383.57,363.00 C378.96,369.33 373.32,376.86 371.04,379.75 C368.77,382.64 366.57,385.00 366.17,385.00 C365.39,385.00 358.71,376.30 354.18,369.84 C355.48,371.62 357.16,373.88 359.32,376.76 C362.91,381.55 363.38,381.87 364.56,380.26 C365.61,378.84 365.87,351.44 365.92,238.00 ZM 103.78 527.90 L 103.50 538.50 L 98.38 538.80 C93.36,539.09 93.26,539.04 92.63,535.92 C92.29,534.18 92.00,519.15 92.00,502.53 L 92.00 472.30 L 101.83 471.70 C111.00,471.14 122.21,472.03 126.60,473.65 C130.07,474.93 135.10,479.29 136.73,482.41 C138.97,486.71 138.97,499.44 136.73,503.64 C134.35,508.12 129.38,512.81 125.14,514.60 C123.14,515.45 117.58,516.40 112.78,516.71 L 104.06 517.29 ZM 227.39 537.42 C226.94,538.59 225.39,539.00 221.39,539.00 L 216.00 539.00 L 216.00 493.00 L 221.00 493.00 C225.67,493.00 226.00,493.17 226.00,495.50 C226.00,498.35 227.16,498.71 229.05,496.45 C233.94,490.55 247.34,490.09 253.13,495.63 L 255.75 498.13 L 260.28 494.94 C264.23,492.16 265.65,491.74 271.42,491.69 C278.91,491.62 282.07,493.29 285.50,499.10 C287.30,502.16 287.50,504.30 287.50,520.50 L 287.50 538.50 L 281.75 538.80 L 276.00 539.10 L 276.00 524.30 C276.00,512.20 275.68,508.86 274.25,506.02 C271.10,499.75 262.59,499.34 258.97,505.28 C257.25,508.11 257.01,510.35 257.00,523.75 L 257.00 539.00 L 246.00 539.00 L 245.99 525.25 C245.99,510.05 245.01,504.82 241.74,502.53 C237.64,499.66 231.11,501.28 229.11,505.66 C228.47,507.07 228.00,513.93 228.00,521.97 C228.00,529.59 227.73,536.55 227.39,537.42 ZM 190.68 538.94 C187.30,540.21 173.15,540.16 167.34,538.85 C161.56,537.55 160.51,536.04 162.12,531.30 C162.83,529.21 163.69,527.14 164.04,526.71 C164.39,526.27 168.18,526.88 172.45,528.05 C184.01,531.22 191.18,528.91 192.55,521.56 C193.69,515.53 190.74,512.87 177.46,507.90 C167.35,504.12 162.00,497.58 162.00,489.00 C162.00,480.35 166.79,474.51 176.37,471.50 C182.85,469.46 194.85,469.75 199.50,472.07 C202.10,473.36 202.46,474.03 202.17,477.03 C201.66,482.48 200.43,483.10 193.61,481.34 C180.62,477.99 171.49,483.57 176.04,492.07 C177.04,493.94 185.86,498.92 191.00,500.52 C200.08,503.34 206.90,512.99 205.59,521.18 C204.25,529.51 198.94,535.85 190.68,538.94 ZM 636.78 527.68 L 636.50 538.50 L 631.46 538.79 C628.69,538.96 626.10,538.77 625.71,538.38 C625.32,537.99 625.00,521.97 625.00,502.78 L 625.00 467.90 L 636.50 468.50 L 636.77 489.25 C636.92,500.66 637.43,510.00 637.91,510.00 C638.39,510.00 642.09,506.21 646.14,501.57 L 653.50 493.15 L 660.25 493.07 C663.96,493.03 667.00,493.34 667.00,493.75 C667.00,494.16 663.11,498.69 658.35,503.82 L 649.71 513.14 L 651.61 515.49 C661.45,527.75 668.00,536.62 668.00,537.70 C668.00,538.63 666.24,538.98 661.75,538.94 L 655.50 538.88 L 647.50 528.27 C643.09,522.44 638.95,517.48 638.28,517.26 C637.39,516.96 636.99,519.75 636.78,527.68 ZM 321.75 537.41 C313.98,541.96 304.19,540.39 299.62,533.86 C297.48,530.81 297.45,521.23 299.57,518.21 C302.41,514.15 308.84,511.57 317.50,511.01 C325.25,510.52 325.51,510.42 325.81,507.87 C326.03,505.96 325.34,504.62 323.31,503.01 C320.85,501.07 319.69,500.85 314.00,501.33 C310.42,501.63 306.54,502.16 305.38,502.52 C303.63,503.05 303.05,502.59 302.13,499.93 L 302.12 499.90 C301.35,497.71 300.96,496.57 301.32,495.79 C301.71,494.94 303.00,494.51 305.68,493.59 C312.92,491.13 325.52,491.47 330.40,494.27 C337.33,498.24 338.07,500.94 337.77,521.00 L 337.50 538.50 L 333.34 538.80 C330.02,539.05 328.89,538.68 327.68,536.96 L 326.18 534.81 ZM 551.34 536.69 C548.67,538.73 546.42,539.47 542.15,539.71 C531.39,540.32 525.56,535.01 526.28,525.24 C526.95,516.11 532.60,512.05 545.77,511.23 C550.87,510.91 554.35,510.24 554.63,509.53 C555.54,507.16 552.97,502.95 549.64,501.36 C546.52,499.88 545.64,499.87 539.36,501.29 C535.59,502.15 532.12,502.48 531.66,502.03 C531.20,501.58 530.75,499.72 530.66,497.88 C530.52,494.91 530.88,494.41 534.00,493.33 C535.92,492.66 541.33,492.09 546.00,492.07 C556.44,492.02 561.41,494.30 564.46,500.51 C566.17,503.99 566.43,506.68 566.46,521.50 L 566.50 538.50 L 562.00 538.50 C558.09,538.50 557.46,538.20 557.18,536.25 C556.77,533.33 555.64,533.41 551.34,536.69 ZM 54.36 538.22 C53.94,538.90 44.11,539.40 43.93,538.75 C43.90,538.61 43.79,523.42 43.70,505.00 L 43.53 471.50 L 81.50 471.50 L 81.80 476.25 L 82.11 481.00 L 56.00 481.00 L 56.00 500.00 L 66.42 500.00 C72.15,500.00 77.44,500.23 78.17,500.51 C79.09,500.86 79.40,502.41 79.16,505.41 C78.85,509.38 78.53,509.84 75.78,510.39 C74.11,510.73 68.87,511.00 64.12,511.01 L 55.50 511.02 L 55.17 524.23 C54.99,531.50 54.63,537.79 54.36,538.22 ZM 472.50 481.50 L 471.50 538.50 L 460.03 539.10 L 459.77 510.30 C459.54,485.54 459.29,481.49 458.00,481.40 C457.17,481.35 452.79,481.24 448.25,481.15 L 440.00 481.00 L 440.00 470.97 L 492.48 471.50 L 492.77 475.67 C492.95,478.25 492.57,480.16 491.78,480.67 C491.08,481.13 486.45,481.50 481.50,481.50 ZM 413.07 538.96 C409.72,540.75 400.84,540.20 397.19,537.97 C392.06,534.85 391.00,531.01 391.00,515.59 L 391.00 502.12 L 387.25 501.81 C383.62,501.51 383.49,501.37 383.20,497.31 L 382.89 493.13 L 386.70 492.81 L 390.50 492.50 L 391.00 486.01 C391.48,479.75 391.61,479.49 394.50,478.87 C396.15,478.52 398.72,478.18 400.21,478.12 C402.88,478.00 402.92,478.07 403.21,485.25 L 403.50 492.50 L 415.50 493.50 L 415.50 501.50 L 403.50 502.50 L 403.22 513.87 C402.86,528.01 403.76,530.00 410.52,530.00 L 415.00 530.00 L 415.00 533.96 C415.00,536.86 414.48,538.21 413.07,538.96 ZM 611.11 538.44 C607.86,540.12 596.57,540.45 591.76,539.00 C586.60,537.45 581.98,533.82 579.24,529.16 C576.87,525.13 576.50,523.42 576.50,516.50 C576.50,507.05 578.13,502.93 583.91,497.70 C588.73,493.34 593.21,492.01 603.06,492.01 C612.55,492.00 614.56,493.20 613.60,498.30 C613.23,500.30 612.60,502.12 612.21,502.35 C611.82,502.59 608.92,502.30 605.77,501.72 C600.94,500.84 599.45,500.94 596.20,502.41 C590.91,504.80 589.00,508.41 589.00,516.06 C589.00,522.09 589.15,522.45 593.14,526.25 L 597.29 530.19 L 605.39 529.85 L 613.50 529.50 L 613.81 533.19 C614.08,536.43 613.74,537.08 611.11,538.44 ZM 399.34 165.88 C405.86,169.31 411.71,171.93 412.34,171.72 C413.11,171.47 413.60,167.45 413.78,159.92 L 414.06 148.50 L 398.64 140.81 C390.16,136.58 382.94,133.39 382.61,133.72 C382.27,134.06 382.00,139.40 382.00,145.59 L 382.00 156.85 L 384.75 158.26 C386.26,159.03 392.83,162.46 399.34,165.88 ZM 396.95 207.65 C404.89,211.71 411.87,214.88 412.45,214.68 C413.10,214.47 413.50,210.02 413.50,202.92 L 413.50 191.50 L 399.00 184.31 C391.02,180.35 383.92,177.09 383.22,177.06 C382.23,177.01 382.00,179.67 382.22,188.63 L 382.50 200.26 ZM 505.02 524.00 L 504.50 538.50 L 498.75 538.80 L 493.00 539.10 L 493.00 493.00 L 498.09 493.00 C502.35,493.00 503.27,493.33 503.71,495.00 C504.00,496.10 504.36,497.00 504.51,497.00 C504.67,497.00 506.75,495.88 509.15,494.51 C511.89,492.94 515.07,492.02 517.75,492.01 L 522.00 492.00 L 522.00 496.30 C522.00,501.47 520.69,503.00 516.25,503.00 C512.25,503.00 507.57,505.24 506.39,507.71 C505.93,508.70 505.31,516.03 505.02,524.00 ZM 363.00 523.16 L 362.50 538.50 L 356.75 538.80 L 351.00 539.10 L 350.93 518.30 C350.88,506.86 350.66,496.47 350.42,495.20 C350.01,492.99 350.23,492.91 355.71,493.20 C360.79,493.47 361.48,493.76 361.98,495.88 C362.49,498.08 362.64,498.13 363.94,496.57 C366.14,493.92 370.56,492.00 374.45,492.00 L 378.00 492.00 L 378.00 496.88 C378.00,502.05 377.01,502.95 371.31,502.99 C370.10,502.99 367.85,504.08 366.31,505.41 C363.51,507.82 363.50,507.86 363.00,523.16 ZM 104.43 505.69 C104.77,506.55 106.83,507.00 110.49,507.00 C116.93,507.00 123.44,503.60 125.04,499.40 C129.07,488.79 122.20,480.50 109.96,481.19 L 104.50 481.50 L 104.22 492.94 C104.06,499.23 104.16,504.97 104.43,505.69 ZM 311.64 530.49 C313.42,532.27 317.26,532.45 320.32,530.88 C323.90,529.05 325.95,525.73 325.98,521.75 L 326.00 518.00 L 321.25 518.10 C314.30,518.25 311.66,519.25 310.19,522.31 C308.76,525.27 309.27,528.13 311.64,530.49 ZM 540.25 530.49 C543.28,532.65 548.68,531.62 552.30,528.19 C554.50,526.10 555.03,524.80 554.80,522.02 L 554.50 518.50 L 548.93 518.52 C541.52,518.54 538.00,520.78 538.00,525.47 C538.00,527.87 538.67,529.36 540.25,530.49 ZM 298.31 134.65 C296.19,136.00 294.46,137.65 294.27,138.57 C293.19,143.82 293.38,146.35 295.23,149.34 L 294.00 147.50 C289.39,140.58 289.16,139.31 292.25,137.98 C293.09,137.61 295.29,136.39 298.31,134.65 ZM 340.57 215.67 C339.30,214.75 338.96,213.69 339.44,212.17 C339.82,210.98 340.55,210.00 341.07,210.00 C341.60,210.00 342.00,204.06 342.00,196.18 L 342.00 199.68 C342.00,208.48 342.34,215.80 342.77,216.87 C342.09,216.77 341.52,216.37 340.57,215.67 ZM 347.33 215.53 C349.82,214.40 352.54,212.84 353.75,211.73 C353.97,211.53 354.17,211.34 354.35,211.14 C353.16,213.06 351.12,213.96 347.63,215.40 ZM 298.00 172.32 C298.00,174.67 298.00,177.30 298.00,180.25 L 298.00 207.04 L 298.00 180.27 ZM 343.76 106.78 C339.33,109.44 335.30,111.92 333.00,113.42 C335.41,111.85 339.37,109.41 343.76,106.78 Z" fill="rgb(24,73,142)"/>
<path d="M 175.78 365.39 C159.72,371.71 158.63,371.64 137.50,362.89 C128.15,359.01 119.38,355.49 118.00,355.06 C115.21,354.18 96.37,346.71 91.10,344.39 C89.23,343.56 88.11,342.53 88.60,342.08 C89.10,341.63 95.12,338.92 102.00,336.06 C108.88,333.19 116.53,329.91 119.00,328.75 C121.47,327.60 124.09,326.54 124.82,326.40 C125.54,326.27 128.02,325.29 130.32,324.22 C132.62,323.16 135.62,322.02 137.00,321.69 C140.17,320.93 143.71,318.38 142.82,317.49 C142.23,316.89 102.00,329.42 85.00,335.50 C81.43,336.78 76.15,338.36 73.27,339.01 C68.44,340.10 67.49,339.98 60.77,337.46 C53.01,334.54 49.00,331.67 49.00,329.01 C49.00,326.31 54.09,322.41 61.25,319.62 C64.96,318.18 71.04,315.82 74.75,314.38 C78.46,312.94 82.85,311.18 84.50,310.48 C86.15,309.78 93.12,307.06 100.00,304.44 C106.88,301.81 119.93,296.76 129.00,293.20 C129.93,292.84 130.83,292.49 131.70,292.15 C149.02,285.35 154.83,283.08 160.21,283.83 C163.19,284.25 166.04,285.59 170.65,287.62 C172.38,288.38 174.12,289.00 174.50,289.00 C174.88,289.00 176.62,289.62 178.35,290.38 C180.08,291.14 183.75,292.55 186.50,293.51 C193.05,295.81 208.95,301.83 211.50,302.98 C213.33,303.80 231.16,310.57 242.00,314.55 C246.68,316.28 254.40,319.55 257.00,320.91 C257.83,321.34 259.17,322.89 260.00,324.35 C261.33,326.71 261.33,327.29 260.00,329.59 C258.16,332.75 252.97,335.53 238.00,341.36 C226.24,345.94 201.49,355.26 194.74,357.66 C192.67,358.40 190.19,359.40 189.24,359.89 C188.28,360.39 182.23,362.86 175.78,365.39 ZM 189.89 427.98 C183.45,430.01 165.16,431.32 156.50,430.36 C145.67,429.17 131.91,425.50 123.51,421.57 C116.21,418.15 113.39,416.15 108.66,411.02 C98.87,400.41 94.31,388.72 91.78,367.69 C91.08,361.89 91.05,358.55 91.71,357.89 C92.36,357.24 101.37,360.36 118.10,367.03 C132.07,372.60 145.88,378.07 148.78,379.20 C156.18,382.08 165.78,381.32 176.50,377.01 C180.90,375.24 189.68,371.76 196.00,369.29 C202.32,366.82 208.92,364.17 210.65,363.40 C212.38,362.63 214.12,362.00 214.50,362.00 C214.88,362.00 216.62,361.35 218.35,360.55 C224.30,357.81 232.38,355.05 232.91,355.57 C233.20,355.86 233.38,361.59 233.31,368.30 C233.12,387.84 228.26,399.74 215.05,413.00 C208.01,420.06 200.13,424.75 189.89,427.98 ZM 86.05 398.36 C86.67,404.34 86.79,409.61 86.33,410.07 C85.86,410.54 82.22,408.88 78.24,406.38 C71.28,402.02 70.82,401.88 66.48,402.80 C64.00,403.33 61.74,403.39 61.45,402.93 C61.17,402.47 61.61,396.33 62.44,389.30 C63.26,382.26 64.41,371.55 64.99,365.50 C65.58,359.45 66.23,353.60 66.45,352.50 C66.67,351.40 66.88,349.66 66.92,348.62 C67.02,346.36 69.97,346.75 77.25,349.98 C80.84,351.58 82.00,352.63 82.00,354.30 C82.01,356.65 84.19,380.40 86.05,398.36 ZM 144.55 316.08 C142.77,317.80 148.64,317.04 153.87,314.87 C158.34,313.01 160.60,311.00 158.22,311.00 C156.70,311.00 145.49,315.17 144.55,316.08 Z" fill="rgb(50,95,48)"/>
<path d="M 337.61 421.52 C334.87,422.34 331.93,422.92 331.07,422.83 C330.21,422.73 327.48,422.51 325.00,422.33 C322.52,422.15 313.08,421.34 304.00,420.53 C294.92,419.71 281.88,418.55 275.00,417.95 C268.12,417.36 260.70,416.49 258.50,416.02 C256.30,415.56 250.81,414.87 246.31,414.49 C234.32,413.48 234.09,413.16 238.43,403.30 C240.39,398.83 242.01,394.57 242.02,393.84 C242.02,393.10 242.68,390.70 243.47,388.50 C244.50,385.64 244.92,379.72 244.96,367.76 L 245.00 351.02 L 254.75 346.07 C262.27,342.25 265.14,340.19 267.31,337.06 C271.00,331.75 271.69,327.10 269.62,321.67 C266.52,313.55 260.11,309.46 236.00,300.20 C204.82,288.23 181.83,279.55 171.90,276.01 C158.20,271.12 157.83,270.85 159.18,266.69 C161.23,260.40 165.18,250.39 168.06,244.21 C169.68,240.74 171.00,237.70 171.00,237.45 C171.00,235.92 181.82,218.33 184.28,215.88 C190.42,209.73 198.87,207.08 206.08,209.02 C212.61,210.78 215.38,213.23 220.55,221.78 C223.11,226.02 228.43,233.73 232.36,238.89 C236.28,244.06 241.26,250.81 243.41,253.89 C245.56,256.98 247.61,259.73 247.96,260.00 C248.31,260.27 251.73,264.76 255.55,269.97 C259.37,275.18 267.23,285.79 273.00,293.55 C278.77,301.31 285.98,311.12 289.00,315.35 C292.02,319.57 297.00,326.29 300.05,330.27 C303.10,334.24 309.52,342.90 314.33,349.50 C319.14,356.10 327.77,367.58 333.52,375.00 C339.27,382.42 345.36,391.13 347.05,394.34 C353.50,406.60 349.55,417.98 337.61,421.52 Z" fill="rgb(79,140,54)"/>
<path d="M 153.32 315.09 C155.29,314.06 155.71,313.00 153.75,313.01 C152.76,313.01 151.09,313.37 149.43,313.86 C152.99,312.47 157.32,311.00 158.22,311.00 C160.60,311.00 158.34,313.01 153.87,314.87 C153.68,314.94 153.50,315.02 153.32,315.09 ZM 144.38 316.27 C144.27,316.79 145.10,317.02 146.41,316.96 C144.76,317.15 143.84,316.95 144.38,316.27 Z" fill="rgb(106,142,95)"/>
<path d="M 144.55 316.08 C144.93,315.71 147.00,314.80 149.43,313.86 C151.09,313.37 152.76,313.01 153.75,313.01 C155.71,313.00 155.29,314.06 153.32,315.09 C150.79,316.08 148.18,316.75 146.41,316.96 C145.10,317.02 144.27,316.79 144.38,316.27 C144.42,316.21 144.48,316.15 144.55,316.08 Z" fill="rgb(157,182,148)"/>
<path d="M 130.69 324.05 C133.43,322.66 135.84,321.09 135.65,320.56 C135.45,320.03 134.95,319.63 134.50,319.61 C139.43,318.17 142.66,317.33 142.82,317.49 C143.71,318.38 140.17,320.93 137.00,321.69 C135.70,322.00 132.93,323.04 130.69,324.05 ZM 317.46 230.75 C317.03,229.61 317.08,220.89 317.36,212.48 C317.32,218.80 317.54,224.93 318.09,226.67 C319.02,229.58 319.33,229.76 322.02,229.00 C323.30,228.63 324.29,228.30 325.15,227.92 C322.07,230.02 318.87,232.00 318.42,232.00 C318.16,232.00 317.72,231.44 317.46,230.75 ZM 331.95 160.36 C331.87,152.89 331.47,145.00 330.90,145.00 C330.40,145.00 330.00,144.10 330.00,143.00 C330.00,140.57 328.26,140.47 324.07,142.74 C327.17,140.80 330.38,139.00 331.05,139.00 C331.62,139.00 331.97,150.61 331.95,160.36 ZM 551.34 536.69 C555.64,533.41 556.77,533.33 557.18,536.25 C557.46,538.20 558.09,538.50 562.00,538.50 L 566.50 538.50 L 562.54 538.82 C559.97,539.03 558.21,538.65 557.54,537.74 C555.76,535.33 553.62,535.20 550.57,537.34 C550.06,537.70 549.46,538.02 548.78,538.30 C549.64,537.88 550.47,537.36 551.34,536.69 ZM 125.99 322.16 C113.62,326.06 91.36,333.26 85.42,335.35 C95.42,331.79 112.93,326.16 125.99,322.16 ZM 330.25 224.20 C331.88,222.54 331.99,220.80 331.99,208.31 L 332.00 222.85 ZM 319.07 146.12 C318.19,147.14 317.68,148.44 317.39,150.55 C317.52,148.70 317.67,147.50 317.82,147.25 C317.97,147.02 318.42,146.62 319.07,146.12 ZM 542.04 539.72 C538.80,539.93 535.49,539.57 533.27,538.57 C532.33,538.15 531.48,537.64 530.72,537.04 C533.40,539.04 537.22,539.97 542.04,539.72 ZM 325.33 178.07 C328.23,176.36 330.99,174.34 331.43,173.33 C331.42,173.34 331.42,173.36 331.41,173.37 C331.04,174.33 328.26,176.35 325.33,178.07 ZM 124.82 326.40 C124.09,326.54 121.47,327.60 119.00,328.75 C121.47,327.60 124.05,326.55 124.73,326.42 C124.84,326.40 124.95,326.37 125.07,326.34 C124.97,326.37 124.89,326.39 124.82,326.40 ZM 318.57 196.12 C318.57,196.12 318.57,196.12 318.58,196.11 C318.99,195.74 320.91,194.56 323.17,193.28 C320.91,194.56 318.99,195.74 318.57,196.12 ZM 317.44 179.45 C317.69,180.70 318.06,181.00 318.63,181.00 C318.06,181.00 317.68,180.70 317.44,179.45 Z" fill="rgb(185,206,226)"/>
<path d="M 544.47 362.04 C542.10,365.80 541.73,365.99 537.24,365.85 C521.09,365.32 503.94,364.09 500.50,363.21 C498.30,362.64 494.45,361.90 491.95,361.56 C481.89,360.18 469.94,353.54 467.85,348.16 C466.63,345.03 466.71,327.20 467.97,321.63 C468.82,317.85 473.47,312.02 477.50,309.67 C478.77,308.93 487.18,308.32 500.50,308.00 L 521.50 307.50 L 522.02 298.77 C522.53,290.29 522.65,289.94 526.38,286.12 C532.10,280.27 534.88,279.82 563.52,280.18 C587.28,280.48 588.71,280.61 592.76,282.78 C598.17,285.66 602.46,291.57 604.04,298.27 C604.85,301.72 605.11,303.81 606.27,305.08 C608.06,307.04 612.00,307.03 623.43,307.01 C624.81,307.00 626.30,307.00 627.91,307.00 C639.37,307.00 650.14,307.28 651.83,307.62 C656.06,308.46 662.89,314.54 665.11,319.44 C666.55,322.61 666.96,325.99 666.98,334.80 C667.01,351.03 665.14,353.83 651.20,358.39 C637.06,363.02 624.11,364.86 604.05,365.11 C593.59,365.23 585.47,364.93 585.29,364.41 C584.11,361.04 582.11,358.36 579.98,357.28 C576.90,355.73 551.75,355.53 548.92,357.04 C547.85,357.62 545.85,359.87 544.47,362.04 ZM 653.34 426.03 L 648.50 428.50 L 569.50 428.65 C526.05,428.73 488.92,428.45 487.00,428.03 C480.86,426.70 478.13,425.17 473.73,420.58 C470.96,417.69 469.01,414.49 468.22,411.54 C466.90,406.61 466.59,366.90 467.84,363.73 C468.49,362.09 468.82,362.15 471.97,364.48 C481.48,371.49 499.59,375.40 528.41,376.64 L 544.00 377.31 L 544.00 380.09 C544.00,384.51 545.69,387.79 548.79,389.39 C551.01,390.54 554.79,390.82 565.39,390.61 C578.65,390.35 579.20,390.26 581.70,387.75 C583.15,386.30 584.56,383.48 584.91,381.33 L 585.53 377.50 L 603.20 376.86 C628.83,375.92 645.25,372.52 658.83,365.35 C662.32,363.51 665.58,362.00 666.08,362.00 C666.61,362.00 667.00,371.93 667.00,385.53 C667.00,411.14 666.72,412.78 661.11,419.86 C659.50,421.89 656.01,424.67 653.34,426.03 ZM 538.67 306.33 C539.94,307.60 584.50,307.10 585.80,305.80 C587.47,304.13 587.30,299.87 585.44,297.22 C583.92,295.05 583.44,295.00 563.17,295.00 C539.35,295.00 538.00,295.37 538.00,301.89 C538.00,303.97 538.30,305.97 538.67,306.33 ZM 457.23 417.06 C457.45,419.06 457.00,419.56 454.75,419.82 C451.52,420.19 451.35,419.40 453.95,416.01 C456.09,413.24 456.83,413.48 457.23,417.06 ZM 557.00 232.05 C557.00,233.40 555.42,233.23 554.27,231.75 C552.59,229.61 552.07,226.00 553.43,226.00 C554.62,226.00 557.00,230.03 557.00,232.05 ZM 545.00 215.20 C545.00,216.53 541.33,216.10 540.10,214.62 C539.21,213.54 539.38,213.13 540.89,212.74 C542.78,212.25 545.00,213.58 545.00,215.20 ZM 571.97 264.75 C571.99,266.99 571.53,268.00 570.50,268.00 C568.59,268.00 568.58,265.94 570.47,263.44 C571.86,261.61 571.94,261.68 571.97,264.75 Z" fill="rgb(168,54,42)"/>
<path d="M 457.23 417.06 C456.83,413.48 456.09,413.24 453.95,416.01 C452.04,418.50 451.63,419.59 452.83,419.84 C449.99,420.18 446.05,420.55 441.79,420.88 C433.71,421.50 419.76,422.24 410.79,422.53 C394.54,423.05 394.49,423.05 389.86,420.39 C383.82,416.92 381.00,411.97 381.00,404.85 C381.00,400.04 381.53,398.68 386.07,391.99 C388.85,387.87 392.17,383.38 393.44,382.00 C394.72,380.62 396.94,377.70 398.38,375.50 C399.83,373.30 402.47,369.60 404.25,367.27 C406.04,364.95 411.68,357.30 416.80,350.27 C421.91,343.25 428.66,334.08 431.80,329.89 C434.93,325.70 438.40,321.04 439.50,319.53 C441.58,316.67 445.27,311.69 455.63,297.75 C489.85,251.70 500.79,236.73 507.92,226.19 C515.31,215.28 516.83,213.60 521.31,211.44 C526.78,208.80 533.86,208.24 538.68,210.06 C540.24,210.65 541.89,211.69 543.60,213.15 C542.82,212.69 541.82,212.50 540.89,212.74 C539.38,213.13 539.21,213.54 540.10,214.62 C541.33,216.10 545.00,216.53 545.00,215.20 C545.00,214.79 544.86,214.40 544.62,214.06 C547.70,216.94 550.95,221.11 554.22,226.40 C553.93,226.15 553.66,226.00 553.43,226.00 C552.07,226.00 552.59,229.61 554.27,231.75 C555.42,233.23 557.00,233.40 557.00,232.05 C557.00,231.67 556.92,231.22 556.77,230.74 C557.62,232.26 558.47,233.85 559.31,235.50 C565.25,247.16 569.46,256.78 571.22,262.51 C571.03,262.71 570.78,263.03 570.47,263.44 C568.58,265.94 568.59,268.00 570.50,268.00 C571.43,268.00 571.90,267.17 571.96,265.36 C572.26,266.91 572.20,267.87 571.75,268.16 C571.61,268.24 562.72,268.58 552.00,268.92 C530.59,269.58 527.23,270.42 520.28,276.85 C516.38,280.46 511.00,288.74 511.00,291.12 C511.00,294.74 508.22,296.00 500.18,296.02 C479.26,296.09 462.44,305.20 457.15,319.32 C455.08,324.87 455.00,326.53 455.01,366.29 C455.02,399.20 455.32,408.60 456.48,412.98 C457.28,415.99 457.62,418.75 457.22,419.10 C457.17,419.15 456.99,419.21 456.72,419.27 C457.26,418.88 457.36,418.22 457.23,417.06 Z" fill="rgb(202,69,51)"/>
<path d="M 249.44 222.47 C247.36,224.04 243.21,224.44 241.38,223.23 C240.09,222.39 236.10,216.85 228.61,205.50 C225.29,200.49 223.08,195.91 222.66,193.25 C222.30,190.91 221.72,187.27 221.39,185.15 C220.63,180.39 225.36,169.37 230.46,164.00 C232.28,162.07 234.50,159.06 235.39,157.30 C236.28,155.54 237.62,153.74 238.38,153.30 C239.14,152.86 241.25,150.25 243.07,147.50 C244.88,144.75 247.63,141.02 249.18,139.22 C250.73,137.41 252.00,135.27 252.00,134.47 C252.00,133.67 252.93,132.45 254.06,131.76 C255.19,131.07 258.66,126.68 261.77,122.00 C264.88,117.32 268.71,111.98 270.29,110.13 C271.87,108.27 273.67,105.57 274.29,104.13 C274.92,102.68 277.13,99.88 279.21,97.90 C281.30,95.93 283.00,93.35 283.00,92.19 C283.00,91.02 283.80,89.64 284.78,89.12 C286.67,88.11 294.00,78.00 294.00,76.40 C294.00,75.87 295.24,74.27 296.75,72.84 C298.26,71.40 300.85,68.35 302.50,66.06 C304.15,63.77 306.74,60.40 308.25,58.57 C309.76,56.73 311.00,54.88 311.00,54.45 C311.00,54.01 311.69,52.89 312.54,51.95 C313.39,51.01 315.08,48.41 316.29,46.18 C318.59,41.95 328.76,29.09 332.77,25.35 C334.04,24.17 338.48,21.52 342.64,19.46 C349.70,15.98 350.96,15.69 361.54,15.23 C370.37,14.84 373.97,15.09 377.87,16.36 C380.62,17.26 383.36,18.00 383.96,18.00 C385.66,18.00 394.98,24.70 397.19,27.51 C398.28,28.90 400.49,30.72 402.09,31.55 C403.69,32.37 405.00,33.70 405.00,34.49 C405.00,35.28 406.97,38.34 409.38,41.29 C411.78,44.25 414.32,47.75 415.02,49.08 C415.72,50.41 420.45,56.67 425.53,63.00 C430.60,69.32 435.50,75.96 436.40,77.75 C437.31,79.54 438.39,81.00 438.81,81.00 C439.23,81.00 440.42,82.46 441.47,84.25 C443.35,87.49 448.46,94.02 454.84,101.36 C456.68,103.48 458.82,106.71 459.58,108.53 C460.34,110.35 463.44,114.77 466.48,118.35 C469.52,121.92 472.00,125.27 472.00,125.79 C472.00,127.21 483.25,141.98 487.25,145.81 C488.76,147.26 490.00,148.98 490.00,149.63 C490.00,150.28 491.46,152.65 493.25,154.89 C495.04,157.14 498.03,160.89 499.90,163.24 C505.15,169.84 508.21,177.53 508.74,185.50 C509.15,191.66 508.88,193.14 506.50,197.86 C505.01,200.80 502.94,204.06 501.89,205.11 C500.85,206.15 500.00,207.83 500.00,208.84 C500.00,210.46 497.47,213.67 489.81,221.75 C486.76,224.97 482.73,224.59 476.57,220.50 C473.67,218.57 470.92,217.00 470.46,217.00 C470.00,217.00 468.70,216.19 467.56,215.20 C464.30,212.35 453.35,206.00 451.70,206.00 C450.88,206.00 449.20,204.09 447.97,201.75 C445.87,197.75 445.74,196.39 445.90,179.00 C446.07,161.42 446.20,160.24 448.61,155.24 C450.01,152.35 451.98,149.54 453.00,149.00 C454.02,148.46 455.54,146.61 456.40,144.91 C458.64,140.41 456.47,135.51 451.29,133.35 C449.20,132.48 444.80,129.65 441.50,127.06 C438.20,124.47 433.34,121.36 430.69,120.14 C428.04,118.93 423.26,116.15 420.07,113.97 C416.87,111.78 413.29,110.00 412.10,110.00 C410.91,110.00 409.67,109.31 409.35,108.48 C408.79,107.01 399.05,100.00 397.58,100.00 C397.19,100.00 395.41,98.89 393.63,97.53 C391.85,96.17 388.35,94.16 385.87,93.06 C383.38,91.96 380.25,90.22 378.92,89.20 C376.49,87.32 371.35,84.56 367.35,82.98 C364.86,81.99 354.93,86.62 343.49,94.10 C339.65,96.62 333.35,100.37 329.50,102.45 C325.65,104.53 320.25,107.69 317.50,109.47 C314.75,111.26 307.77,115.53 302.00,118.98 C296.23,122.43 290.83,125.83 290.00,126.55 C289.17,127.26 287.28,128.15 285.79,128.52 C284.29,128.89 282.83,129.98 282.52,130.92 C282.22,131.87 280.52,133.29 278.74,134.07 C273.08,136.57 274.05,144.36 281.00,152.26 L 285.00 156.81 L 285.00 178.90 C285.00,199.67 284.88,201.12 283.00,203.00 C281.90,204.10 280.44,205.00 279.76,205.00 C279.08,205.00 276.04,206.65 273.01,208.67 C269.98,210.68 265.70,213.45 263.50,214.82 C261.30,216.19 258.28,218.14 256.79,219.16 C255.30,220.17 253.47,221.00 252.73,221.00 C251.99,221.00 250.51,221.66 249.44,222.47 ZM 242.82 220.23 L 245.34 222.97 L 249.98 220.23 C252.53,218.73 258.10,215.48 262.35,213.00 C266.60,210.52 272.87,206.47 276.29,203.98 L 282.50 199.46 L 283.01 182.98 C283.70,160.97 283.43,159.49 277.50,152.56 C273.31,147.65 272.60,146.17 272.22,141.60 C271.78,136.38 271.83,136.27 276.14,132.78 C278.54,130.84 281.89,128.55 283.58,127.69 C285.28,126.83 293.47,121.93 301.79,116.81 C354.01,84.67 362.16,80.00 365.96,80.03 C368.63,80.05 373.22,82.32 384.66,89.28 C393.00,94.35 405.37,101.87 412.16,106.00 C418.95,110.12 427.30,115.30 430.73,117.50 C434.15,119.70 439.22,122.85 441.99,124.50 C451.52,130.17 457.50,134.64 458.90,137.13 C461.25,141.31 459.56,146.53 453.93,152.48 L 449.00 157.69 L 449.00 178.69 C449.00,197.44 449.19,199.85 450.75,201.21 C455.45,205.29 483.73,222.03 485.49,221.78 C488.08,221.42 500.22,206.25 504.04,198.61 C506.40,193.89 506.98,191.44 506.92,186.59 C506.81,177.26 506.51,176.66 492.00,156.84 C480.68,141.37 470.51,127.52 459.44,112.50 C452.55,103.15 445.70,93.81 444.21,91.73 C442.72,89.66 437.87,83.14 433.44,77.23 C429.00,71.33 421.16,60.65 416.00,53.50 C394.23,23.28 386.72,18.00 365.50,18.00 C351.13,18.00 339.98,22.09 332.34,30.16 C329.61,33.05 308.36,62.03 280.39,101.00 C275.85,107.32 266.96,119.47 260.63,128.00 C227.46,172.68 223.98,178.39 224.01,187.91 C224.04,193.49 234.11,210.81 242.82,220.23 ZM 455.80 419.64 C456.19,419.55 456.49,419.43 456.72,419.27 C456.99,419.21 457.17,419.15 457.22,419.10 C457.62,418.75 457.28,415.99 456.48,412.98 C455.32,408.60 455.02,399.20 455.01,366.29 C455.00,326.53 455.08,324.87 457.15,319.32 C462.44,305.20 479.26,296.09 500.18,296.02 C501.39,296.02 502.49,295.99 503.47,295.92 C501.68,296.07 499.41,296.19 496.50,296.33 C486.20,296.84 475.51,300.08 472.81,303.51 C471.86,304.72 468.36,307.69 465.04,310.11 C458.27,315.03 458.37,314.86 457.19,324.50 C456.41,330.89 456.39,402.73 457.17,414.50 L 457.50 419.50 ZM 478.36 309.38 C479.28,308.88 480.16,308.52 480.96,308.36 C482.63,308.02 484.00,307.36 484.00,306.88 C484.00,306.39 491.37,306.00 500.38,306.00 C518.69,306.00 518.79,305.96 519.72,299.04 C520.02,296.82 520.62,295.00 521.05,295.00 C521.49,295.00 522.12,293.72 522.46,292.16 C522.57,291.69 522.75,291.19 523.01,290.67 C522.44,292.30 522.28,294.51 522.02,298.77 L 521.50 307.50 L 500.50 308.00 C488.92,308.28 481.05,308.77 478.36,309.38 ZM 130.69 324.05 C130.56,324.11 130.44,324.17 130.32,324.22 C128.24,325.18 126.02,326.08 125.07,326.34 C124.95,326.37 124.84,326.40 124.73,326.42 C124.05,326.55 121.47,327.60 119.00,328.75 C116.53,329.91 108.88,333.19 102.00,336.06 C95.12,338.92 89.10,341.63 88.60,342.08 C88.11,342.53 89.23,343.56 91.10,344.39 C93.80,345.57 100.04,348.11 105.86,350.41 C100.07,348.12 93.87,345.61 91.20,344.43 C89.38,343.63 88.10,342.65 88.36,342.24 C88.62,341.83 94.68,339.03 101.83,336.01 C114.74,330.55 118.80,327.70 115.07,326.73 C114.09,326.47 109.17,327.67 102.44,329.71 C110.51,327.09 119.58,324.18 125.99,322.16 L 125.99 322.16 C129.14,321.20 132.03,320.33 134.50,319.61 C134.95,319.63 135.45,320.03 135.65,320.56 C135.84,321.09 133.43,322.66 130.69,324.05 ZM 402.40 422.77 L 394.50 423.04 L 390.87 420.96 C393.73,422.56 395.11,422.91 402.40,422.77 ZM 511.01 290.99 C511.20,288.44 516.46,280.39 520.28,276.85 C523.02,274.32 525.20,272.65 528.14,271.52 C525.82,272.49 523.92,273.84 521.50,275.82 C517.33,279.22 512.30,286.50 511.01,290.99 ZM 532.65 281.73 C533.28,281.43 533.90,281.19 534.50,281.01 C535.79,280.64 538.59,280.38 543.01,280.24 C538.13,280.44 535.01,280.88 532.65,281.73 ZM 556.46 280.11 C558.64,280.12 560.99,280.14 563.50,280.18 C577.66,280.36 583.90,280.48 587.48,281.00 C583.90,280.48 577.67,280.36 563.52,280.18 C560.97,280.15 558.62,280.13 556.46,280.11 ZM 505.84 295.67 C507.38,295.43 508.53,295.06 509.35,294.52 C508.65,295.08 507.60,295.43 505.84,295.67 ZM 450.63 420.09 C451.42,420.00 452.15,419.92 452.83,419.84 C452.90,419.86 452.98,419.87 453.06,419.88 ZM 467.97 321.63 C467.95,321.69 467.94,321.76 467.93,321.82 C467.95,321.71 467.97,321.60 468.00,321.50 C468.22,320.51 468.70,319.42 469.37,318.29 C468.69,319.48 468.20,320.63 467.97,321.63 ZM 85.00 335.50 C84.28,335.76 83.49,336.03 82.66,336.30 C83.49,336.03 84.28,335.76 85.00,335.50 C85.14,335.45 85.28,335.40 85.42,335.35 C85.28,335.40 85.14,335.45 85.00,335.50 Z" fill="rgb(251,236,209)"/>
<path d="M 242.82 220.23 C234.11,210.81 224.04,193.49 224.01,187.91 C223.98,178.39 227.46,172.68 260.63,128.00 C266.96,119.47 275.85,107.32 280.39,101.00 C308.36,62.03 329.61,33.05 332.34,30.16 C339.98,22.09 351.13,18.00 365.50,18.00 C386.72,18.00 394.23,23.28 416.00,53.50 C421.16,60.65 429.00,71.33 433.44,77.23 C437.87,83.14 442.72,89.66 444.21,91.73 C445.70,93.81 452.55,103.15 459.44,112.50 C470.51,127.52 480.68,141.37 492.00,156.84 C506.51,176.66 506.81,177.26 506.92,186.59 C506.98,191.44 506.40,193.89 504.04,198.61 C500.22,206.25 488.08,221.42 485.49,221.78 C483.73,222.03 455.45,205.29 450.75,201.21 C449.19,199.85 449.00,197.44 449.00,178.69 L 449.00 157.69 L 453.93 152.48 C459.56,146.53 461.25,141.31 458.90,137.13 C457.50,134.64 451.52,130.17 441.99,124.50 C439.22,122.85 434.15,119.70 430.73,117.50 C427.30,115.30 418.95,110.12 412.16,106.00 C405.37,101.87 393.00,94.35 384.66,89.28 C373.22,82.32 368.63,80.05 365.96,80.03 C362.16,80.00 354.01,84.67 301.79,116.81 C293.47,121.93 285.28,126.83 283.58,127.69 C281.89,128.55 278.54,130.84 276.14,132.78 C271.83,136.27 271.78,136.38 272.22,141.60 C272.60,146.17 273.31,147.65 277.50,152.56 C283.43,159.49 283.70,160.97 283.01,182.98 L 282.50 199.46 L 276.29 203.98 C272.87,206.47 266.60,210.52 262.35,213.00 C258.10,215.48 252.53,218.73 249.98,220.23 L 245.34 222.97 Z" fill="rgb(245,166,21)"/>
<path d="M 0.00 276.00 L 0.00 0.00 L 371.50 0.00 L 743.00 0.00 L 743.00 276.00 L 743.00 552.00 L 371.50 552.00 L 0.00 552.00 L 0.00 276.00 ZM 190.68 538.94 C198.94,535.85 204.25,529.51 205.59,521.18 C206.90,512.99 200.08,503.34 191.00,500.52 C185.86,498.92 177.04,493.94 176.04,492.07 C171.49,483.57 180.62,477.99 193.61,481.34 C200.43,483.10 201.66,482.48 202.17,477.03 C202.46,474.03 202.10,473.36 199.50,472.07 C194.85,469.75 182.85,469.46 176.37,471.50 C166.79,474.51 162.00,480.35 162.00,489.00 C162.00,497.58 167.35,504.12 177.46,507.90 C190.74,512.87 193.69,515.53 192.55,521.56 C191.18,528.91 184.01,531.22 172.45,528.05 C168.18,526.88 164.39,526.27 164.04,526.71 C163.69,527.14 162.83,529.21 162.12,531.30 C160.51,536.04 161.56,537.55 167.34,538.85 C173.15,540.16 187.30,540.21 190.68,538.94 ZM 321.75 537.41 L 326.18 534.81 L 327.68 536.96 C328.89,538.68 330.02,539.05 333.34,538.80 L 337.50 538.50 L 337.77 521.00 C338.07,500.94 337.33,498.24 330.40,494.27 C325.52,491.47 312.92,491.13 305.68,493.59 C300.52,495.35 300.52,495.34 302.13,499.93 C303.05,502.59 303.63,503.05 305.38,502.52 C306.54,502.16 310.42,501.63 314.00,501.33 C319.69,500.85 320.85,501.07 323.31,503.01 C325.34,504.62 326.03,505.96 325.81,507.87 C325.51,510.42 325.25,510.52 317.50,511.01 C308.84,511.57 302.41,514.15 299.57,518.21 C297.45,521.23 297.48,530.81 299.62,533.86 C304.19,540.39 313.98,541.96 321.75,537.41 ZM 413.07 538.96 C414.48,538.21 415.00,536.86 415.00,533.96 L 415.00 530.00 L 410.52 530.00 C403.76,530.00 402.86,528.01 403.22,513.87 L 403.50 502.50 L 409.50 502.00 L 415.50 501.50 L 415.50 497.50 L 415.50 493.50 L 409.50 493.00 L 403.50 492.50 L 403.21 485.25 C402.92,478.07 402.88,478.00 400.21,478.12 C398.72,478.18 396.15,478.52 394.50,478.87 C391.61,479.49 391.48,479.75 391.00,486.01 L 390.50 492.50 L 386.70 492.81 L 382.89 493.13 L 383.20 497.31 C383.49,501.37 383.62,501.51 387.25,501.81 L 391.00 502.12 L 391.00 515.59 C391.00,531.01 392.06,534.85 397.19,537.97 C400.84,540.20 409.72,540.75 413.07,538.96 ZM 550.57 537.34 C553.62,535.20 555.76,535.33 557.54,537.74 C558.21,538.65 559.97,539.03 562.54,538.82 L 566.50 538.50 L 566.46 521.50 C566.43,506.68 566.17,503.99 564.46,500.51 C561.41,494.30 556.44,492.02 546.00,492.07 C541.33,492.09 535.92,492.66 534.00,493.33 C530.88,494.41 530.52,494.91 530.66,497.88 C530.75,499.72 531.20,501.58 531.66,502.03 C532.12,502.48 535.59,502.15 539.36,501.29 C545.64,499.87 546.52,499.88 549.64,501.36 C552.97,502.95 555.54,507.16 554.63,509.53 C554.35,510.24 550.87,510.91 545.77,511.23 C532.60,512.05 526.95,516.11 526.28,525.24 C525.81,531.58 528.30,536.33 533.27,538.57 C537.78,540.61 546.82,539.96 550.57,537.34 ZM 611.11 538.44 C613.74,537.08 614.08,536.43 613.81,533.19 L 613.50 529.50 L 605.39 529.85 L 597.29 530.19 L 593.14 526.25 C589.15,522.45 589.00,522.09 589.00,516.06 C589.00,508.41 590.91,504.80 596.20,502.41 C599.45,500.94 600.94,500.84 605.77,501.72 C608.92,502.30 611.82,502.59 612.21,502.35 C612.60,502.12 613.23,500.30 613.60,498.30 C614.56,493.20 612.55,492.00 603.06,492.01 C593.21,492.01 588.73,493.34 583.91,497.70 C578.13,502.93 576.50,507.05 576.50,516.50 C576.50,523.42 576.87,525.13 579.24,529.16 C581.98,533.82 586.60,537.45 591.76,539.00 C596.57,540.45 607.86,540.12 611.11,538.44 ZM 54.36 538.22 C54.63,537.79 54.99,531.50 55.17,524.23 L 55.50 511.02 L 64.12 511.01 C68.87,511.00 74.11,510.73 75.78,510.39 C78.53,509.84 78.85,509.38 79.16,505.41 C79.40,502.41 79.09,500.86 78.17,500.51 C77.44,500.23 72.15,500.00 66.42,500.00 L 56.00 500.00 L 56.00 490.50 L 56.00 481.00 L 69.05 481.00 L 82.11 481.00 L 81.80 476.25 L 81.50 471.50 L 62.52 471.50 L 43.53 471.50 L 43.70 505.00 C43.79,523.42 43.90,538.61 43.93,538.75 C44.11,539.40 53.94,538.90 54.36,538.22 ZM 103.78 527.90 L 104.06 517.29 L 112.78 516.71 C117.58,516.40 123.14,515.45 125.14,514.60 C129.38,512.81 134.35,508.12 136.73,503.64 C138.97,499.44 138.97,486.71 136.73,482.41 C135.10,479.29 130.07,474.93 126.60,473.65 C122.21,472.03 111.00,471.14 101.83,471.70 L 92.00 472.30 L 92.00 502.53 C92.00,519.15 92.29,534.18 92.63,535.92 C93.26,539.04 93.36,539.09 98.38,538.80 L 103.50 538.50 L 103.78 527.90 ZM 227.39 537.42 C227.73,536.55 228.00,529.59 228.00,521.97 C228.00,513.93 228.47,507.07 229.11,505.66 C231.11,501.28 237.64,499.66 241.74,502.53 C245.01,504.82 245.99,510.05 245.99,525.25 L 246.00 539.00 L 251.50 539.00 L 257.00 539.00 L 257.00 523.75 C257.01,510.35 257.25,508.11 258.97,505.28 C262.59,499.34 271.10,499.75 274.25,506.02 C275.68,508.86 276.00,512.20 276.00,524.30 L 276.00 539.10 L 281.75 538.80 L 287.50 538.50 L 287.50 520.50 C287.50,504.30 287.30,502.16 285.50,499.10 C282.07,493.29 278.91,491.62 271.42,491.69 C265.65,491.74 264.23,492.16 260.28,494.94 L 255.75 498.13 L 253.13 495.63 C247.34,490.09 233.94,490.55 229.05,496.45 C227.16,498.71 226.00,498.35 226.00,495.50 C226.00,493.17 225.67,493.00 221.00,493.00 L 216.00 493.00 L 216.00 516.00 L 216.00 539.00 L 221.39 539.00 C225.39,539.00 226.94,538.59 227.39,537.42 ZM 363.00 523.16 C363.50,507.86 363.51,507.82 366.31,505.41 C367.85,504.08 370.10,502.99 371.31,502.99 C377.01,502.95 378.00,502.05 378.00,496.88 L 378.00 492.00 L 374.45 492.00 C370.56,492.00 366.14,493.92 363.94,496.57 C362.64,498.13 362.49,498.08 361.98,495.88 C361.48,493.76 360.79,493.47 355.71,493.20 C350.23,492.91 350.01,492.99 350.42,495.20 C350.66,496.47 350.88,506.86 350.93,518.30 L 351.00 539.10 L 356.75 538.80 L 362.50 538.50 L 363.00 523.16 ZM 472.00 510.00 L 472.50 481.50 L 481.50 481.50 C486.45,481.50 491.08,481.13 491.78,480.67 C492.57,480.16 492.95,478.25 492.77,475.67 L 492.48 471.50 L 466.24 471.23 L 440.00 470.97 L 440.00 475.98 L 440.00 481.00 L 448.25 481.15 C452.79,481.24 457.17,481.35 458.00,481.40 C459.29,481.49 459.54,485.54 459.77,510.30 L 460.03 539.10 L 465.77 538.80 L 471.50 538.50 L 472.00 510.00 ZM 505.02 524.00 C505.31,516.03 505.93,508.70 506.39,507.71 C507.57,505.24 512.25,503.00 516.25,503.00 C520.69,503.00 522.00,501.47 522.00,496.30 L 522.00 492.00 L 517.75 492.01 C515.07,492.02 511.89,492.94 509.15,494.51 C506.75,495.88 504.67,497.00 504.51,497.00 C504.36,497.00 504.00,496.10 503.71,495.00 C503.27,493.33 502.35,493.00 498.09,493.00 L 493.00 493.00 L 493.00 516.05 L 493.00 539.10 L 498.75 538.80 L 504.50 538.50 L 505.02 524.00 ZM 636.78 527.68 C636.99,519.75 637.39,516.96 638.28,517.26 C638.95,517.48 643.09,522.44 647.50,528.27 L 655.50 538.88 L 661.75 538.94 C666.24,538.98 668.00,538.63 668.00,537.70 C668.00,536.62 661.45,527.75 651.61,515.49 L 649.71 513.14 L 658.35 503.82 C663.11,498.69 667.00,494.16 667.00,493.75 C667.00,493.34 663.96,493.03 660.25,493.07 L 653.50 493.15 L 646.14 501.57 C642.09,506.21 638.39,510.00 637.91,510.00 C637.43,510.00 636.92,500.66 636.77,489.25 L 636.50 468.50 L 630.75 468.20 L 625.00 467.90 L 625.00 502.78 C625.00,521.97 625.32,537.99 625.71,538.38 C626.10,538.77 628.69,538.96 631.46,538.79 L 636.50 538.50 L 636.78 527.68 ZM 189.89 427.98 C200.13,424.75 208.01,420.06 215.05,413.00 C228.26,399.74 233.12,387.84 233.31,368.30 C233.38,361.59 233.20,355.86 232.91,355.57 C232.38,355.05 224.30,357.81 218.35,360.55 C216.62,361.35 214.88,362.00 214.50,362.00 C214.12,362.00 212.38,362.63 210.65,363.40 C208.92,364.17 202.32,366.82 196.00,369.29 C189.68,371.76 180.90,375.24 176.50,377.01 C165.78,381.32 156.18,382.08 148.78,379.20 C145.88,378.07 132.07,372.60 118.10,367.03 C101.37,360.36 92.36,357.24 91.71,357.89 C91.05,358.55 91.08,361.89 91.78,367.69 C94.31,388.72 98.87,400.41 108.66,411.02 C113.39,416.15 116.21,418.15 123.51,421.57 C131.91,425.50 145.67,429.17 156.50,430.36 C165.16,431.32 183.45,430.01 189.89,427.98 ZM 653.34 426.03 C656.01,424.67 659.50,421.89 661.11,419.86 C666.72,412.78 667.00,411.14 667.00,385.53 C667.00,371.93 666.61,362.00 666.08,362.00 C665.58,362.00 662.32,363.51 658.83,365.35 C645.25,372.52 628.83,375.92 603.20,376.86 L 585.53 377.50 L 584.91 381.33 C584.56,383.48 583.15,386.30 581.70,387.75 C579.20,390.26 578.65,390.35 565.39,390.61 C554.79,390.82 551.01,390.54 548.79,389.39 C545.69,387.79 544.00,384.51 544.00,380.09 L 544.00 377.31 L 528.41 376.64 C499.59,375.40 481.48,371.49 471.97,364.48 C468.82,362.15 468.49,362.09 467.84,363.73 C466.59,366.90 466.90,406.61 468.22,411.54 C469.01,414.49 470.96,417.69 473.73,420.58 C478.13,425.17 480.86,426.70 487.00,428.03 C488.92,428.45 526.05,428.73 569.50,428.65 L 648.50 428.50 L 653.34 426.03 ZM 337.61 421.52 C349.55,417.98 353.50,406.60 347.05,394.34 C345.36,391.13 339.27,382.42 333.52,375.00 C327.77,367.58 319.14,356.10 314.33,349.50 C309.52,342.90 303.10,334.24 300.05,330.27 C297.00,326.29 292.02,319.57 289.00,315.35 C285.98,311.12 278.77,301.31 273.00,293.55 C267.23,285.79 259.37,275.18 255.55,269.97 C251.73,264.76 248.31,260.27 247.96,260.00 C247.61,259.73 245.56,256.98 243.41,253.89 C241.26,250.81 236.28,244.06 232.36,238.89 C228.43,233.73 223.11,226.02 220.55,221.78 C215.38,213.23 212.61,210.78 206.08,209.02 C198.87,207.08 190.42,209.73 184.28,215.88 C181.82,218.33 171.00,235.92 171.00,237.45 C171.00,237.70 169.68,240.74 168.06,244.21 C165.18,250.39 161.23,260.40 159.18,266.69 C157.83,270.85 158.20,271.12 171.90,276.01 C181.83,279.55 204.82,288.23 236.00,300.20 C260.11,309.46 266.52,313.55 269.62,321.67 C271.69,327.10 271.00,331.75 267.31,337.06 C265.14,340.19 262.27,342.25 254.75,346.07 L 245.00 351.02 L 244.96 367.76 C244.92,379.72 244.50,385.64 243.47,388.50 C242.68,390.70 242.02,393.10 242.02,393.84 C242.01,394.57 240.39,398.83 238.43,403.30 C234.09,413.16 234.32,413.48 246.31,414.49 C250.81,414.87 256.30,415.56 258.50,416.02 C260.70,416.49 268.12,417.36 275.00,417.95 C281.88,418.55 294.92,419.71 304.00,420.53 C313.08,421.34 322.52,422.15 325.00,422.33 C327.48,422.51 330.21,422.73 331.07,422.83 C331.93,422.92 334.87,422.34 337.61,421.52 ZM 444.00 420.65 L 457.50 419.50 L 457.17 414.50 C456.39,402.73 456.41,330.89 457.19,324.50 C458.37,314.86 458.27,315.03 465.04,310.11 C468.36,307.69 471.86,304.72 472.81,303.51 C475.51,300.08 486.20,296.84 496.50,296.33 C509.44,295.69 509.77,295.58 510.95,291.19 C512.15,286.71 517.27,279.27 521.50,275.82 C528.47,270.14 531.10,269.54 552.00,268.91 C562.72,268.58 571.61,268.24 571.75,268.16 C573.64,266.97 568.60,253.74 559.31,235.50 C552.18,221.50 544.76,212.35 538.68,210.06 C533.86,208.24 526.78,208.80 521.31,211.44 C516.83,213.60 515.31,215.28 507.92,226.19 C500.79,236.73 489.85,251.70 455.63,297.75 C445.27,311.69 441.58,316.67 439.50,319.53 C438.40,321.04 434.93,325.70 431.80,329.89 C428.66,334.08 421.91,343.25 416.80,350.27 C411.68,357.30 406.04,364.95 404.25,367.27 C402.47,369.60 399.83,373.30 398.38,375.50 C396.94,377.70 394.72,380.62 393.44,382.00 C392.17,383.38 388.85,387.87 386.07,391.99 C381.53,398.68 381.00,400.04 381.00,404.85 C381.00,411.97 383.82,416.92 389.86,420.38 L 394.50 423.04 L 412.50 422.42 C422.40,422.08 436.58,421.28 444.00,420.65 ZM 86.05 398.36 C84.19,380.40 82.01,356.65 82.00,354.30 C82.00,352.63 80.84,351.58 77.25,349.98 C69.97,346.75 67.02,346.36 66.92,348.62 C66.88,349.66 66.67,351.40 66.45,352.50 C66.23,353.60 65.58,359.45 64.99,365.50 C64.41,371.55 63.26,382.26 62.44,389.30 C61.61,396.33 61.17,402.47 61.45,402.93 C61.74,403.39 64.00,403.33 66.48,402.80 C70.82,401.88 71.28,402.02 78.24,406.38 C82.22,408.88 85.86,410.54 86.33,410.07 C86.79,409.61 86.67,404.34 86.05,398.36 ZM 371.04 379.75 C373.32,376.86 378.96,369.33 383.57,363.00 C395.96,346.04 404.67,334.22 424.49,307.50 C434.28,294.30 445.94,278.58 450.39,272.57 C454.85,266.55 462.90,255.76 468.28,248.59 L 478.05 235.55 L 475.78 233.82 C474.52,232.87 469.67,229.66 465.00,226.68 C460.33,223.70 451.85,218.31 446.16,214.69 C440.47,211.07 435.42,207.97 434.93,207.80 C434.43,207.64 433.96,195.28 433.86,180.34 L 433.69 153.19 L 437.42 148.11 C439.47,145.31 441.00,142.23 440.82,141.26 C440.63,140.24 434.96,136.15 427.27,131.50 C420.00,127.10 408.30,119.97 401.28,115.65 C394.25,111.33 384.90,105.61 380.50,102.95 C376.10,100.28 371.08,97.15 369.33,95.98 L 366.17 93.86 L 358.83 97.99 C350.49,102.69 338.17,110.04 333.00,113.42 C321.52,120.92 295.65,136.50 292.25,137.98 C289.16,139.31 289.39,140.58 294.00,147.50 L 297.99 153.50 L 298.00 180.27 L 298.00 207.04 L 289.10 212.77 C284.21,215.92 276.67,220.70 272.35,223.38 C254.48,234.50 254.05,234.91 256.45,238.56 C257.37,239.98 258.75,241.89 259.51,242.82 C260.26,243.74 265.19,250.12 270.46,257.00 C275.72,263.88 280.64,270.22 281.39,271.11 C282.13,271.99 282.91,273.18 283.12,273.74 C283.49,274.73 304.52,303.24 316.36,318.80 C319.58,323.03 327.63,333.92 334.24,343.00 C340.84,352.08 347.09,360.12 348.12,360.87 C349.16,361.63 350.00,362.62 350.00,363.08 C350.00,364.69 364.98,385.00 366.17,385.00 C366.57,385.00 368.77,382.64 371.04,379.75 ZM 175.78 365.39 C182.23,362.86 188.28,360.39 189.24,359.89 C190.19,359.40 192.67,358.40 194.74,357.66 C201.49,355.26 226.24,345.94 238.00,341.36 C252.97,335.53 258.16,332.75 260.00,329.59 C261.33,327.29 261.33,326.71 260.00,324.35 C259.17,322.89 257.83,321.34 257.00,320.91 C254.40,319.55 246.68,316.28 242.00,314.55 C231.16,310.57 213.33,303.80 211.50,302.98 C208.95,301.83 193.05,295.81 186.50,293.51 C183.75,292.55 180.08,291.14 178.35,290.38 C176.62,289.62 174.88,289.00 174.50,289.00 C174.12,289.00 172.38,288.38 170.65,287.62 C157.31,281.76 158.70,281.57 129.00,293.20 C119.93,296.76 106.88,301.81 100.00,304.44 C93.12,307.06 86.15,309.78 84.50,310.48 C82.85,311.18 78.46,312.94 74.75,314.38 C71.04,315.82 64.96,318.18 61.25,319.62 C54.09,322.41 49.00,326.31 49.00,329.01 C49.00,331.67 53.01,334.54 60.77,337.46 C67.49,339.98 68.44,340.10 73.27,339.01 C76.15,338.36 81.43,336.78 85.00,335.50 C99.49,330.32 113.35,326.28 115.07,326.73 C118.80,327.70 114.74,330.55 101.83,336.01 C94.68,339.03 88.62,341.83 88.36,342.24 C88.10,342.65 89.38,343.63 91.20,344.43 C96.45,346.74 115.25,354.19 118.00,355.06 C119.38,355.49 128.15,359.01 137.50,362.89 C158.63,371.64 159.72,371.71 175.78,365.39 ZM 544.47 362.04 C545.85,359.87 547.85,357.62 548.92,357.04 C551.75,355.53 576.90,355.73 579.98,357.28 C582.11,358.36 584.11,361.04 585.29,364.41 C585.47,364.93 593.59,365.23 604.05,365.11 C624.11,364.86 637.06,363.02 651.20,358.39 C665.14,353.83 667.01,351.03 666.98,334.80 C666.96,325.99 666.55,322.61 665.11,319.44 C662.89,314.54 656.06,308.46 651.83,307.62 C650.14,307.28 639.37,307.00 627.91,307.00 C604.37,307.00 606.25,307.69 604.04,298.27 C602.46,291.57 598.17,285.66 592.76,282.78 C588.71,280.61 587.27,280.48 563.50,280.18 C546.55,279.96 537.21,280.23 534.50,281.01 C529.64,282.43 523.32,288.28 522.46,292.16 C522.12,293.72 521.49,295.00 521.05,295.00 C520.62,295.00 520.02,296.82 519.72,299.04 C518.79,305.96 518.69,306.00 500.38,306.00 C491.37,306.00 484.00,306.39 484.00,306.88 C484.00,307.36 482.63,308.02 480.96,308.36 C476.38,309.27 469.08,316.67 468.00,321.50 C466.71,327.18 466.62,345.00 467.85,348.16 C469.94,353.54 481.89,360.18 491.95,361.56 C494.45,361.90 498.30,362.64 500.50,363.21 C503.94,364.09 521.09,365.32 537.24,365.85 C541.73,365.99 542.10,365.80 544.47,362.04 ZM 249.44 222.47 C250.51,221.66 251.99,221.00 252.73,221.00 C253.47,221.00 255.30,220.17 256.79,219.16 C258.28,218.14 261.30,216.19 263.50,214.82 C265.70,213.45 269.98,210.68 273.01,208.67 C276.04,206.65 279.08,205.00 279.76,205.00 C280.44,205.00 281.90,204.10 283.00,203.00 C284.88,201.12 285.00,199.67 285.00,178.90 L 285.00 156.81 L 281.00 152.26 C274.05,144.36 273.08,136.57 278.74,134.07 C280.52,133.29 282.22,131.87 282.52,130.92 C282.83,129.98 284.29,128.89 285.79,128.52 C287.28,128.15 289.17,127.26 290.00,126.55 C290.83,125.83 296.23,122.43 302.00,118.98 C307.77,115.53 314.75,111.26 317.50,109.47 C320.25,107.69 325.65,104.53 329.50,102.45 C333.35,100.37 339.65,96.62 343.49,94.10 C354.93,86.62 364.86,81.99 367.35,82.98 C371.35,84.56 376.49,87.32 378.92,89.20 C380.25,90.22 383.38,91.96 385.87,93.06 C388.35,94.16 391.85,96.17 393.63,97.53 C395.41,98.89 397.19,100.00 397.58,100.00 C399.05,100.00 408.79,107.01 409.35,108.48 C409.67,109.31 410.91,110.00 412.10,110.00 C413.29,110.00 416.87,111.78 420.07,113.97 C423.26,116.15 428.04,118.93 430.69,120.14 C433.34,121.36 438.20,124.47 441.50,127.06 C444.80,129.65 449.20,132.48 451.29,133.35 C456.47,135.51 458.64,140.41 456.40,144.91 C455.54,146.61 454.02,148.46 453.00,149.00 C451.98,149.54 450.01,152.35 448.61,155.24 C446.20,160.24 446.07,161.42 445.90,179.00 C445.74,196.39 445.87,197.75 447.97,201.75 C449.20,204.09 450.88,206.00 451.70,206.00 C453.35,206.00 464.30,212.35 467.56,215.20 C468.70,216.19 470.00,217.00 470.46,217.00 C470.92,217.00 473.67,218.57 476.57,220.50 C482.73,224.59 486.76,224.97 489.81,221.75 C497.47,213.67 500.00,210.46 500.00,208.84 C500.00,207.83 500.85,206.15 501.89,205.11 C502.94,204.06 505.01,200.80 506.50,197.86 C508.88,193.14 509.15,191.66 508.74,185.50 C508.21,177.53 505.15,169.84 499.90,163.24 C498.03,160.89 495.04,157.14 493.25,154.89 C491.46,152.65 490.00,150.28 490.00,149.63 C490.00,148.98 488.76,147.26 487.25,145.81 C483.25,141.98 472.00,127.21 472.00,125.79 C472.00,125.27 469.52,121.92 466.48,118.35 C463.44,114.77 460.34,110.35 459.58,108.53 C458.82,106.71 456.68,103.48 454.84,101.36 C448.46,94.02 443.35,87.49 441.47,84.25 C440.42,82.46 439.23,81.00 438.81,81.00 C438.39,81.00 437.31,79.54 436.40,77.75 C435.50,75.96 430.60,69.32 425.53,63.00 C420.45,56.67 415.72,50.41 415.02,49.08 C414.32,47.75 411.78,44.25 409.38,41.29 C406.97,38.34 405.00,35.28 405.00,34.49 C405.00,33.70 403.69,32.37 402.09,31.55 C400.49,30.72 398.28,28.90 397.19,27.51 C394.98,24.70 385.66,18.00 383.96,18.00 C383.36,18.00 380.62,17.26 377.87,16.36 C373.97,15.09 370.37,14.84 361.54,15.23 C350.96,15.69 349.70,15.98 342.64,19.46 C338.48,21.52 334.04,24.17 332.77,25.35 C328.76,29.09 318.59,41.95 316.29,46.18 C315.08,48.41 313.39,51.01 312.54,51.95 C311.69,52.89 311.00,54.01 311.00,54.45 C311.00,54.88 309.76,56.73 308.25,58.57 C306.74,60.40 304.15,63.77 302.50,66.06 C300.85,68.35 298.26,71.40 296.75,72.84 C295.24,74.27 294.00,75.87 294.00,76.40 C294.00,78.00 286.67,88.11 284.78,89.12 C283.80,89.64 283.00,91.02 283.00,92.19 C283.00,93.35 281.30,95.93 279.21,97.90 C277.13,99.88 274.92,102.68 274.29,104.13 C273.67,105.57 271.87,108.27 270.29,110.13 C268.71,111.98 264.88,117.32 261.77,122.00 C258.66,126.68 255.19,131.07 254.06,131.76 C252.93,132.45 252.00,133.67 252.00,134.47 C252.00,135.27 250.73,137.41 249.18,139.22 C247.63,141.02 244.88,144.75 243.07,147.50 C241.25,150.25 239.14,152.86 238.38,153.30 C237.62,153.74 236.28,155.54 235.39,157.30 C234.50,159.06 232.28,162.07 230.46,164.00 C225.36,169.37 220.63,180.39 221.39,185.15 C221.72,187.27 222.30,190.91 222.66,193.25 C223.08,195.91 225.29,200.49 228.61,205.50 C236.10,216.85 240.09,222.39 241.38,223.23 C243.21,224.44 247.36,224.04 249.44,222.47 ZM 311.64 530.49 C309.27,528.13 308.76,525.27 310.19,522.31 C311.66,519.25 314.30,518.25 321.25,518.10 L 326.00 518.00 L 325.98 521.75 C325.95,525.73 323.90,529.05 320.32,530.88 C317.26,532.45 313.42,532.27 311.64,530.49 ZM 540.25 530.49 C538.67,529.36 538.00,527.87 538.00,525.47 C538.00,520.78 541.52,518.54 548.93,518.52 L 554.50 518.50 L 554.80 522.02 C555.03,524.80 554.50,526.10 552.30,528.19 C548.68,531.62 543.28,532.65 540.25,530.49 ZM 104.43 505.69 C104.16,504.97 104.06,499.23 104.22,492.94 L 104.50 481.50 L 109.96 481.19 C122.20,480.50 129.07,488.79 125.04,499.40 C123.44,503.60 116.93,507.00 110.49,507.00 C106.83,507.00 104.77,506.55 104.43,505.69 ZM 317.78 266.25 C317.53,257.59 317.68,249.50 318.12,248.29 C319.04,245.76 328.46,240.58 330.63,241.41 C331.79,241.86 332.00,244.95 331.77,258.67 L 331.50 275.38 L 326.00 278.68 C322.98,280.50 319.99,281.99 319.37,282.00 C318.60,282.00 318.10,277.01 317.78,266.25 ZM 342.23 250.81 L 342.50 232.63 L 347.00 229.89 C349.48,228.39 352.51,227.12 353.75,227.08 L 356.00 227.00 L 356.00 244.43 L 356.00 261.86 L 350.12 265.43 C346.88,267.39 343.72,269.00 343.10,269.00 C342.27,269.00 342.03,263.94 342.23,250.81 ZM 318.09 226.67 C316.87,222.80 317.26,197.31 318.56,196.13 C319.08,195.66 321.87,193.98 324.78,192.39 C329.30,189.91 330.19,189.71 331.01,191.00 C331.54,191.82 331.98,199.28 331.98,207.58 C332.00,221.95 331.90,222.75 329.75,224.68 C326.89,227.25 325.62,227.96 322.02,229.00 C319.33,229.76 319.02,229.58 318.09,226.67 ZM 342.00 199.68 L 342.00 182.37 L 347.89 179.55 C351.12,178.01 354.27,177.05 354.89,177.43 C355.63,177.89 356.00,183.38 356.00,193.88 C356.00,208.95 355.90,209.74 353.75,211.73 C351.63,213.69 344.80,217.00 342.88,217.00 C342.40,217.00 342.00,209.21 342.00,199.68 ZM 396.95 207.65 L 382.50 200.26 L 382.22 188.63 C382.00,179.67 382.23,177.01 383.22,177.06 C383.92,177.09 391.02,180.35 399.00,184.31 L 413.50 191.50 L 413.50 202.92 C413.50,210.02 413.10,214.47 412.45,214.68 C411.87,214.88 404.89,211.71 396.95,207.65 ZM 317.00 164.69 C317.00,146.81 317.02,146.73 323.31,143.16 C328.05,140.47 330.00,140.42 330.00,143.00 C330.00,144.10 330.40,145.00 330.90,145.00 C331.93,145.00 332.42,170.75 331.44,173.30 C330.71,175.21 321.08,181.00 318.63,181.00 C317.19,181.00 317.00,179.09 317.00,164.69 ZM 399.34 165.88 C392.83,162.46 386.26,159.03 384.75,158.26 L 382.00 156.85 L 382.00 145.59 C382.00,139.40 382.27,134.06 382.61,133.72 C382.94,133.39 390.16,136.58 398.64,140.81 L 414.06 148.50 L 413.78 159.92 C413.60,167.45 413.11,171.47 412.34,171.72 C411.71,171.93 405.86,169.31 399.34,165.88 ZM 342.00 150.01 L 342.00 132.03 L 348.14 128.93 C353.01,126.47 354.45,126.11 355.12,127.17 C355.59,127.90 355.98,135.56 355.98,144.20 L 356.00 159.90 L 352.75 162.33 C349.58,164.70 343.65,168.00 342.55,168.00 C342.25,168.00 342.00,159.91 342.00,150.01 ZM 538.67 306.33 C538.30,305.97 538.00,303.97 538.00,301.89 C538.00,295.37 539.35,295.00 563.17,295.00 C583.44,295.00 583.92,295.05 585.44,297.22 C587.30,299.87 587.47,304.13 585.80,305.80 C584.50,307.10 539.94,307.60 538.67,306.33 Z" fill="#FFFFFF"/>
</g>
</svg>