<svg xmlns="http://www.w3.org/2000/svg" width="24" height="24" viewBox="0 0 24 24"><path d="M13.834 7c0-.644.522-1.167 1.166-1.167s1.166.523 1.166 1.167-.522 1.167-1.166 1.167-1.166-.523-1.166-1.167zm10.166 5c0 6.627-5.373 12-12 12s-12-5.373-12-12 5.373-12 12-12 12 5.373 12 12zm-12-5c0 1.654 1.346 3 3 3s3-1.346 3-3-1.346-3-3-3-3 1.346-3 3zm-4.609 0l-1.391 1.391.943.943 1.391-1.391 1.391 1.391.941-.943-1.391-1.391 1.391-1.391-.941-.942-1.391 1.39-1.391-1.39-.943.942 1.391 1.391zm10.609 11.461c0-.359-.122-.741-.396-1.097-1.014-1.316-1.604-2.024-1.604-2.024h-4.666s1.691 2.058 2.681 3.296c.775.969 1.35 1.364 2.307 1.364.942 0 1.678-.71 1.678-1.539zm2-3.794c0-1.84-1.492-3.333-3.334-3.333h-9.332c-1.842-.001-3.334 1.492-3.334 3.333 0 1.84 1.492 3.333 3.334 3.333h4.094c-.763-.937-2.186-2.667-2.186-2.667h-1.908c-.368 0-.668-.299-.668-.667s.3-.666.668-.666h8.852c.596 0 .934.165 1.309.639.641.808 1.671 2.109 1.709 2.168.489-.581.796-1.321.796-2.14z"/></svg>